<?xml version='1.0' encoding='utf-8'?>
<svg xmlns="http://www.w3.org/2000/svg" width="600mm" height="650mm" clip-path="url(#a)" fill-rule="evenodd" stroke-linejoin="round" stroke-width="28.222" preserveAspectRatio="xMidYMid" version="1.2" viewBox="0 0 60000 65000">
 <defs class="ClipPathGroup">
  <clipPath id="a">
   <rect width="6e4" height="65000"/>
  </clipPath>
 </defs>
 <g class="SlideGroup">
   <g class="Slide" clip-path="url(#a)">
    <g class="Page">
     <g class="com.sun.star.drawing.ClosedBezierShape">
       <path d="m52740 17395v37666c0 3524-3570 7094-7094 7094h-28283c-3524 0-7048-3570-7048-7094v-45263c0-3524 3524-7048 7048-7048h21052l14325 14645z" fill="#fff"/>
       <path d="m52740 17395v37666c0 3524-3570 7094-7094 7094h-28283c-3524 0-7048-3570-7048-7094v-45263c0-3524 3524-7048 7048-7048h21052l14325 14645z" fill="none" stroke="#053c6d" stroke-width="2e3"/>
     </g>
     <g class="com.sun.star.drawing.CustomShape">
       <path d="m38099 2698l14474 15434h-14474v-15434zm14475 15434z" fill="#fff"/>
       <path d="m38099 2698l14474 15434h-14474v-15434z" fill="none" stroke="#053c6d" stroke-width="2e3"/>
     </g>
     <g class="Group">
      <g class="com.sun.star.drawing.LineShape">
        <path d="m16652 40050h29751" fill="none" stroke="#b20000" stroke-width="1520"/>
      </g>
      <g class="com.sun.star.drawing.LineShape">
        <path d="m16652 45520h29751" fill="none" stroke="#b20000" stroke-width="1520"/>
      </g>
      <g class="com.sun.star.drawing.LineShape">
        <path d="m16652 50990h29751" fill="none" stroke="#b20000" stroke-width="1520"/>
      </g>
      <g class="Group">
       <g class="com.sun.star.drawing.ClosedBezierShape">
         <path d="m18712 26182v7003h870c640 0 1098-229 1327-641s366-1419 366-2883c0-1465-91-2380-366-2838-275-457-687-641-1327-641h-870zm-2059-1556h3203c1282 0 2151 367 2655 1145 503 778 778 2059 778 3935 0 1877-275 3204-778 3982-504 778-1373 1099-2655 1099h-3203v-10161z" fill="#053c6d"/>
       </g>
       <g class="com.sun.star.drawing.ClosedBezierShape">
         <path d="m27911 34970c-412 0-869-92-1236-229-411-92-686-275-915-504-412-366-732-869-869-1556-138-686-275-1739-275-3112 0-1052 46-1876 137-2471 92-595 321-1053 549-1419 229-412 595-686 1007-870 412-183 1007-320 1602-320 458 0 915 46 1282 183 366 137 686 321 961 549 366 321 640 824 823 1465 184 641 229 1556 229 2792 0 1281-45 2196-137 2791s-275 1099-549 1465c-229 412-595 686-1053 915-412 183-961 321-1556 321zm-1236-5309c0 1510 92 2517 275 2975 183 457 503 732 961 732s824-229 1007-687c183-457 275-1510 275-3112 0-1419-92-2334-275-2792-183-457-503-686-1007-686-458 0-778 229-961 686-183 458-275 1419-275 2884z" fill="#053c6d"/>
       </g>
       <g class="com.sun.star.drawing.ClosedBezierShape">
         <path d="m38986 31308v504c0 1007-274 1785-778 2334-503 549-1281 824-2242 824-458 0-870-92-1282-229-366-92-686-275-915-504-412-366-686-869-869-1510s-229-1785-229-3249c0-1053 46-1831 137-2380 92-549 275-1053 549-1419 229-412 595-686 1007-870 412-183 1007-320 1602-320 961 0 1693 275 2197 778 503 504 778 1327 778 2334v183h-2060v-183c0-549-91-915-229-1190-137-274-411-366-732-366-457 0-778 229-961 641s-229 1556-229 3204c0 1373 92 2334 229 2791 137 458 504 687 961 687 366 0 595-137 778-412s229-732 229-1282v-366h2059z" fill="#053c6d"/>
       </g>
       <g class="com.sun.star.drawing.ClosedBezierShape">
         <path d="m40131 31674h2105v229c0 549 46 916 229 1144 183 229 457 321 869 321 321 0 549-92 733-275 183-183 274-503 274-824 0-503-412-1006-1281-1601-92-46-138-92-138-92-457-320-823-595-1098-778s-458-366-595-503c-366-321-595-641-732-962-138-320-183-686-183-1098 0-869 274-1510 823-2014 550-503 1282-778 2243-778s1693 229 2197 687c503 457 732 1190 732 2105v275h-2014v-92c0-458-91-824-274-1052-183-229-412-367-733-367-274 0-503 92-686 275s-275 458-275 778c0 549 550 1190 1694 1876 274 184 503 321 686 412 641 458 1053 870 1327 1236 275 366 367 870 367 1419 0 961-275 1739-824 2242-549 504-1373 733-2472 733-1052 0-1784-229-2242-733-458-503-732-1190-732-2242v-321z" fill="#053c6d"/>
       </g>
      </g>
     </g>
    </g>
   </g>
 </g>
</svg>